<svg aria-hidden="true" style="position: absolute; width: 0; height: 0; overflow: hidden;" version="1.1" xmlns="http://www.w3.org/2000/svg" xmlns:xlink="http://www.w3.org/1999/xlink">
<defs>
<symbol id="lose" viewBox="0 0 32 32">
<path fill="#ff6d1f" style="fill: var(--color1, #ff6d1f)" d="M20.5 8.5h-0.050c-1.352-0.635-2.857-1-4.45-1s-3.098 0.365-4.45 1h-0.050c-6.075 0-11 4.925-11 11v0c0 6.075 4.925 11 11 11h0.050c1.352 0.635 2.857 1 4.45 1s3.098-0.365 4.45-1h0.050c6.075 0 11-4.925 11-11v0c0-6.075-4.925-11-11-11z"></path>
<path fill="#a69d24" style="fill: var(--color2, #a69d24)" d="M10.5 2v0c0 0.829 0.671 1.5 1.5 1.5v0c1.38 0 2.5 1.12 2.5 2.5v1.5h3v-1.5c0-3.038-2.463-5.5-5.5-5.5v0c-0.829 0-1.5 0.671-1.5 1.5z"></path>
<path fill="#732002" style="fill: var(--color3, #732002)" d="M17.5 14.5c0 0 1 1 3 1s3-1 3-1-0.5 3-3 3-3-3-3-3zM11.5 17.5c2.5 0 3-3 3-3s-1 1-3 1-3-1-3-1 0.5 3 3 3zM16 21.5c-3.5 0-5.5 4-5.5 4s2.5-1 5.5-1c3 0 5.5 1 5.5 1s-2-4-5.5-4z"></path>
<path fill="#66eaff" style="fill: var(--color4, #66eaff)" d="M21.5 19.5c0-1-1-2-1-2s-1 1-1 2c0 0.552 0.448 1 1 1s1-0.448 1-1z"></path>
<path fill="#260a04" style="fill: var(--color5, #260a04)" d="M23.731 14.059c-0.192-0.101-0.427-0.066-0.581 0.085-0.036 0.035-0.904 0.857-2.649 0.857s-2.613-0.822-2.646-0.854c-0.154-0.155-0.39-0.191-0.582-0.091s-0.3 0.313-0.264 0.527c0.168 1.010 0.913 2.783 2.567 3.28-0.288 0.434-0.574 1.018-0.574 1.637 0 0.827 0.673 1.5 1.5 1.5s1.5-0.673 1.5-1.5c0-0.619-0.286-1.203-0.574-1.637 1.654-0.497 2.399-2.271 2.567-3.28 0.036-0.213-0.071-0.424-0.262-0.524zM20.5 20c-0.276 0-0.5-0.224-0.5-0.5 0-0.415 0.255-0.878 0.5-1.22 0.245 0.341 0.5 0.805 0.5 1.22 0 0.276-0.224 0.5-0.5 0.5zM20.5 17c-1.089 0-1.724-0.706-2.083-1.38 0.53 0.21 1.224 0.38 2.083 0.38s1.553-0.17 2.083-0.38c-0.359 0.674-0.994 1.38-2.083 1.38z"></path>
<path fill="#260a04" style="fill: var(--color5, #260a04)" d="M14.993 14.582c0.036-0.213-0.072-0.424-0.262-0.524s-0.427-0.066-0.582 0.085c-0.036 0.034-0.904 0.856-2.649 0.856s-2.614-0.822-2.646-0.854c-0.155-0.155-0.389-0.191-0.582-0.091s-0.3 0.313-0.264 0.527c0.197 1.182 1.181 3.418 3.493 3.418s3.296-2.236 3.493-3.418zM9.417 15.62c0.53 0.21 1.225 0.38 2.083 0.38s1.553-0.17 2.083-0.38c-0.359 0.674-0.995 1.38-2.083 1.38s-1.724-0.706-2.083-1.38z"></path>
<path fill="#260a04" style="fill: var(--color5, #260a04)" d="M16 21c-3.765 0-5.86 4.102-5.947 4.276-0.093 0.186-0.061 0.41 0.079 0.563 0.097 0.105 0.232 0.161 0.368 0.161 0.063 0 0.126-0.012 0.185-0.035 0.024-0.010 2.444-0.965 5.315-0.965 2.861 0 5.291 0.955 5.314 0.965 0.193 0.076 0.413 0.026 0.553-0.126s0.172-0.376 0.079-0.562c-0.087-0.174-2.181-4.276-5.947-4.276zM16 24c-1.729 0-3.286 0.317-4.332 0.601 0.822-1.096 2.317-2.601 4.332-2.601 2.008 0 3.504 1.503 4.328 2.599-1.046-0.283-2.601-0.599-4.328-0.599z"></path>
<path fill="#260a04" style="fill: var(--color5, #260a04)" d="M32 19.5c0-6.315-5.117-11.456-11.422-11.498-0.811-0.373-1.675-0.65-2.578-0.816v-1.186c0-3.308-2.691-6-6-6-1.103 0-2 0.897-2 2s0.897 2 2 2 2 0.897 2 2v1.186c-0.902 0.167-1.767 0.444-2.579 0.816-6.305 0.043-11.421 5.183-11.421 11.498s5.117 11.456 11.421 11.498c1.395 0.642 2.945 1.002 4.579 1.002s3.183-0.36 4.578-1.002c6.305-0.043 11.422-5.183 11.422-11.498zM12 3c-0.552 0-1-0.449-1-1s0.448-1 1-1c2.757 0 5 2.243 5 5v1.048c-0.329-0.030-0.663-0.048-1-0.048s-0.671 0.018-1 0.048v-1.048c0-1.655-1.345-3-3-3zM22.609 29.787c2.665-2.009 4.391-5.2 4.391-8.787h-1c0 5.514-4.486 10-10 10s-10-4.486-10-10h-1c0 3.587 1.726 6.777 4.391 8.787-4.782-0.979-8.391-5.22-8.391-10.287s3.609-9.308 8.391-10.287c-2.665 2.010-4.391 5.2-4.391 8.787h1c0-5.514 4.486-10 10-10s10 4.486 10 10h1c0-3.587-1.727-6.777-4.391-8.787 4.782 0.979 8.391 5.22 8.391 10.287s-3.609 9.308-8.391 10.287z"></path>
</symbol>
<symbol id="trophy" viewBox="0 0 32 32">
<path fill="#f4ad47" style="fill: var(--color6, #f4ad47)" d="M24.357 0.672v11.549c0 1.246-0.273 2.429-0.763 3.492-0.37 0.802-0.863 1.536-1.456 2.177-0.753 0.817-1.669 1.483-2.695 1.948-1.015 0.46-2.141 0.722-3.325 0.738-0.040 0.002-0.079 0.002-0.118 0.002s-0.079 0-0.118-0.002c-1.184-0.016-2.31-0.278-3.325-0.738-1.026-0.464-1.942-1.131-2.695-1.948-0.593-0.641-1.086-1.375-1.456-2.177-0.49-1.063-0.763-2.246-0.763-3.492v-11.549h16.714z"></path>
<path fill="#efefef" style="fill: var(--color7, #efefef)" d="M16 4.871l1.322 3.038 3.298 0.318-2.481 2.196 0.716 3.235-2.855-1.681-2.855 1.681 0.716-3.235-2.481-2.196 3.298-0.318z"></path>
<path fill="#e8594f" style="fill: var(--color8, #e8594f)" d="M19.444 19.837v3.764h-6.887v-3.764c1.015 0.46 2.141 0.722 3.325 0.738 0.040 0.002 0.079 0.002 0.118 0.002s0.079 0 0.118-0.002c1.184-0.016 2.31-0.278 3.325-0.738z"></path>
<path fill="#f4ad47" style="fill: var(--color6, #f4ad47)" d="M14.32 23.601h3.36v3.863h-3.36v-3.864z"></path>
<path fill="#e8594f" style="fill: var(--color8, #e8594f)" d="M7.979 31.328h16.042l-0.453-2.086c-0.226-1.038-1.144-1.778-2.206-1.778h-10.724c-1.062 0-1.98 0.74-2.206 1.778l-0.453 2.086z"></path>
<path fill="#231f20" style="fill: var(--color9, #231f20)" d="M13.12 10.664l-0.631 2.848c-0.058 0.261 0.045 0.532 0.261 0.689s0.505 0.171 0.736 0.035l2.514-1.48 2.514 1.48c0.105 0.062 0.223 0.093 0.341 0.093 0.139 0 0.278-0.043 0.395-0.128 0.216-0.157 0.319-0.428 0.261-0.689l-0.631-2.848 2.185-1.934c0.2-0.177 0.276-0.456 0.194-0.711s-0.308-0.436-0.575-0.461l-2.904-0.28-1.164-2.675c-0.107-0.245-0.349-0.404-0.616-0.404s-0.509 0.159-0.616 0.404l-1.164 2.675-2.904 0.28c-0.266 0.026-0.492 0.207-0.575 0.461s-0.007 0.534 0.194 0.711l2.184 1.934zM14.743 8.578c0.243-0.023 0.454-0.177 0.552-0.401l0.706-1.622 0.706 1.622c0.097 0.224 0.309 0.377 0.552 0.401l1.761 0.17-1.324 1.172c-0.183 0.162-0.264 0.41-0.211 0.648l0.382 1.727-1.524-0.897c-0.105-0.062-0.223-0.093-0.341-0.093s-0.236 0.031-0.341 0.093l-1.524 0.897 0.382-1.727c0.053-0.238-0.028-0.487-0.211-0.648l-1.324-1.172 1.761-0.17z"></path>
<path fill="#231f20" style="fill: var(--color9, #231f20)" d="M29.732 2.52h-4.703v-1.848c0-0.371-0.301-0.672-0.672-0.672h-16.714c-0.371 0-0.672 0.301-0.672 0.672v1.848h-4.703c-0.371 0-0.672 0.301-0.672 0.672v5.463c0 2.093 1.414 4.059 3.982 5.534 0.673 0.388 1.489 1.156 2.275 1.923 0.391 0.817 0.899 1.568 1.515 2.233 0.726 0.788 1.572 1.43 2.517 1.914v3.342c0 0.371 0.301 0.672 0.672 0.672h1.092v2.52h-3.010c-1.368 0-2.572 0.97-2.862 2.307l-0.453 2.086c-0.043 0.199 0.006 0.406 0.133 0.564s0.32 0.25 0.523 0.25h16.042c0.203 0 0.396-0.092 0.523-0.25s0.177-0.366 0.133-0.564l-0.453-2.086c-0.291-1.337-1.494-2.307-2.862-2.307h-3.010v-2.52h1.092c0.371 0 0.672-0.301 0.672-0.672v-3.342c0.946-0.484 1.791-1.126 2.517-1.913 0.616-0.666 1.125-1.418 1.515-2.234 0.786-0.767 1.602-1.535 2.274-1.923 2.568-1.476 3.982-3.442 3.982-5.535v-5.463c0-0.371-0.301-0.672-0.672-0.672zM6.248 13.024c-2.133-1.226-3.308-2.778-3.308-4.37v-4.791h4.032v8.357c0 0.459 0.035 0.913 0.102 1.36 0 0.005 0.001 0.009 0.001 0.014-0.28-0.22-0.556-0.414-0.826-0.57zM22.911 29.385l0.276 1.271h-14.375l0.276-1.271c0.157-0.723 0.809-1.248 1.549-1.248h10.724c0.74 0 1.392 0.525 1.549 1.248zM17.008 26.793h-2.016v-2.52h2.016v2.52zM18.772 22.929h-5.543v-2.113c0.008 0.002 0.015 0.004 0.023 0.007 0.84 0.269 1.715 0.411 2.613 0.424 0.045 0.002 0.091 0.002 0.136 0.002s0.091-0 0.136-0.002c0.889-0.013 1.756-0.153 2.588-0.416 0.016-0.005 0.031-0.009 0.047-0.014v2.112zM23.685 12.22c0 1.121-0.236 2.201-0.701 3.211-0.338 0.734-0.788 1.408-1.339 2.003-0.703 0.762-1.536 1.365-2.479 1.791-0.961 0.436-1.99 0.664-3.057 0.678-0.006 0-0.013 0-0.019 0-0.030 0.001-0.060 0.001-0.091 0.001s-0.060 0-0.091-0.001c-0.006-0-0.013-0-0.019-0-0.133-0.002-0.266-0.007-0.398-0.015-0.925-0.059-1.817-0.282-2.659-0.663-0.942-0.426-1.775-1.029-2.479-1.792-0.55-0.594-1-1.268-1.338-2.002-0.465-1.010-0.701-2.090-0.701-3.211v-10.877h15.37v10.877zM29.060 8.654c0 1.591-1.175 3.143-3.309 4.37-0.27 0.156-0.546 0.349-0.826 0.57 0-0.002 0-0.005 0-0.008 0.068-0.449 0.103-0.904 0.103-1.366v-8.357h4.032v4.791h0z"></path>
</symbol>
<symbol id="handshake" viewBox="0 0 32 32">
<path fill="#fcea2b" style="fill: var(--color10, #fcea2b); stroke: var(--color10, #fcea2b)" stroke="#fcea2b" stroke-linejoin="miter" stroke-linecap="round" stroke-miterlimit="4" stroke-width="0.6809" d="M14.021 26.88c0.853 0.897 2.16-1.617 2.537-2.166 1.212 0.895 4.474 1.596 3.976-0.841 0.646 0.237 2.657 0.349 2.031-1.822 1.607 0.785 2.979-0.443 2.767-1.825 1.423 0.258 2.293-0.906 1.893-2.294 2.143-2.693 2.019-6.172 1.897-7.74-0.41-5.225-7.428-3.249-10.657-5.291l-6.853 0.027c-1.162 2.081-1.883 0.963-4.077 1.234-3.203 0.47-5.845 8.575-5.022 8.944l4.079 4.345c0.074 0.806-2.063 2.134-0.188 3.106 3.232 1.14 5.444 2.674 7.623 4.321z"></path>
<path fill="none" stroke="#000" style="stroke: var(--color11, #000)" stroke-linejoin="round" stroke-linecap="round" stroke-miterlimit="4" stroke-width="0.8889" d="M6.689 19.533s-3.17-2.588-3.794-3.671c-1.952-3.376 0.422-8.796 4.64-9.698"></path>
<path fill="none" stroke="#000" style="stroke: var(--color11, #000)" stroke-linejoin="round" stroke-linecap="round" stroke-miterlimit="4" stroke-width="0.8889" d="M17.204 19.107l5.729 3.12"></path>
<path fill="none" stroke="#000" style="stroke: var(--color11, #000)" stroke-linejoin="round" stroke-linecap="round" stroke-miterlimit="4" stroke-width="0.8889" d="M15.053 21.24l5.778 2.888"></path>
<path fill="none" stroke="#000" style="stroke: var(--color11, #000)" stroke-linejoin="round" stroke-linecap="round" stroke-miterlimit="4" stroke-width="0.8889" d="M25.858 20.32l-2.267-1.937-3.68-1.927"></path>
<path fill="none" stroke="#000" style="stroke: var(--color11, #000)" stroke-linejoin="round" stroke-linecap="round" stroke-miterlimit="4" stroke-width="0.8889" d="M16.662 25.018c3.811 2.429 4.796-0.131 4.172-0.886 1.215 0.722 2.76-0.23 2.103-1.904 1.708 0.821 3.121-0.46 2.924-1.904 1.478 0.263 2.398-0.952 1.971-2.396 2.987-2.038 2.24-8.458-0.044-11.271-4.128-0.648-4.889-1.050-9.324-1.752l-6.013-0.275c-0.891-0.235-1.814 0.253-2.124 1.126-0.334 1.252-0.745 2.209-1.6 3.724-0.324 0.794 0.047 1.702 0.832 2.039 0.848 0.212 1.236-0.172 1.982-0.749 0.976-0.934 1.168-1.332 1.691-2.033l6.062 2.757 5.653 3.184c1.117 0.755 2.228 2.597 2.893 3.254"></path>
<path fill="none" stroke="#000" style="stroke: var(--color11, #000)" stroke-linejoin="round" stroke-linecap="round" stroke-miterlimit="4" stroke-width="0.8889" d="M14.004 24.067c0.493-0.656 1.185-0.761 1.842-0.4 0.624 0.361 1.084 1.050 0.657 1.806l-0.788 1.378c-0.493 0.656-1.412 0.755-2.036 0.295-0.548-0.411-0.708-1.119-0.478-1.705 0.804-1.375 0 0 0.804-1.375z"></path>
<path fill="none" stroke="#000" style="stroke: var(--color11, #000)" stroke-linejoin="round" stroke-linecap="round" stroke-miterlimit="4" stroke-width="0.8889" d="M11.484 22.658c0.493-0.656 1.185-0.761 1.842-0.4 0.624 0.361 1.084 1.050 0.657 1.806l-0.788 1.378c-0.493 0.656-1.412 0.755-2.036 0.295-0.548-0.411-0.708-1.119-0.478-1.705 0.804-1.375 0 0 0.804-1.375z"></path>
<path fill="none" stroke="#000" style="stroke: var(--color11, #000)" stroke-linejoin="round" stroke-linecap="round" stroke-miterlimit="4" stroke-width="0.8889" d="M8.969 21.253c0.493-0.656 1.185-0.761 1.842-0.4 0.624 0.361 1.084 1.050 0.657 1.806l-0.788 1.378c-0.493 0.656-1.412 0.755-2.036 0.295-0.548-0.411-0.708-1.119-0.478-1.705 0.804-1.375 0 0 0.804-1.375z"></path>
<path fill="none" stroke="#000" style="stroke: var(--color11, #000)" stroke-linejoin="round" stroke-linecap="round" stroke-miterlimit="4" stroke-width="0.8889" d="M6.458 19.844c0.493-0.656 1.185-0.761 1.842-0.4 0.624 0.361 1.084 1.050 0.657 1.806l-0.788 1.378c-0.493 0.656-1.412 0.755-2.036 0.295-0.548-0.411-0.708-1.119-0.478-1.705 0.804-1.375 0 0 0.804-1.375z"></path>
</symbol>
<symbol id="alien-coin" viewBox="0 0 32 32">
<path fill="#40c7a9" style="fill: var(--color12, #40c7a9)" d="M16 1.667c-7.915 0-16 10.167-16 18.958 0 0.913 0.685 1.709 1.598 1.709h1.777c0.048-0.253 0.105-0.507 0.185-0.763 0.277-0.897 0.974-1.647 1.891-1.85 0.694-0.154 1.491-0.021 2.038 1.023 0.259 0.493 0.301 1.073 0.141 1.591h16.742c-0.161-0.517-0.119-1.097 0.141-1.591 0.548-1.043 1.345-1.177 2.038-1.023 0.917 0.204 1.614 0.953 1.891 1.85 0.079 0.256 0.136 0.51 0.185 0.763h1.865c0.883 0 1.509-0.75 1.509-1.634 0-8.255-8.061-19.033-16-19.033z"></path>
<path fill="#c1f4e8" style="fill: var(--color13, #c1f4e8)" d="M9.486 20.333c-0.063-0.178-0.139-0.352-0.227-0.52-0.715-1.364-1.935-2.147-3.346-2.147-0.293 0-0.595 0.034-0.897 0.101-1.279 0.284-2.371 1.151-3.006 2.342 0.312-7.795 7.59-16.443 13.991-16.443 6.569 0 13.591 9.441 13.983 16.43-0.635-1.184-1.725-2.046-3-2.329-0.302-0.067-0.603-0.101-0.897-0.101-1.411 0-2.63 0.783-3.346 2.147-0.089 0.167-0.164 0.341-0.227 0.519h-13.027z"></path>
<path fill="#211f02" style="fill: var(--color14, #211f02)" d="M6 30.333c0 0-3.865-4.154-2.441-8.763 0.277-0.898 0.974-1.647 1.891-1.85 0.694-0.154 1.491-0.021 2.038 1.023 0.41 0.781 0.279 1.779-0.345 2.403-1.359 1.36-1.143 3.854-1.143 7.187z"></path>
<path fill="#211f02" style="fill: var(--color14, #211f02)" d="M14 22.333c-1.896 1.187-2 6.667-2 6.667-2.875-2.833-2-6.667-2-6.667h4z"></path>
<path fill="#211f02" style="fill: var(--color14, #211f02)" d="M26 30.333c0 0 3.865-4.154 2.441-8.763-0.277-0.898-0.974-1.647-1.891-1.85-0.694-0.154-1.491-0.021-2.038 1.023-0.41 0.781-0.279 1.779 0.345 2.403 1.359 1.36 1.143 3.854 1.143 7.187z"></path>
<path fill="#211f02" style="fill: var(--color14, #211f02)" d="M18 22.333c1.896 1.187 2 6.667 2 6.667 2.875-2.833 2-6.667 2-6.667h-4z"></path>
<path fill="#e64c3c" style="fill: var(--color15, #e64c3c)" d="M19.333 8c0 2.025-1.492 3.667-3.333 3.667s-3.333-1.642-3.333-3.667c0-2.025 1.492-3.667 3.333-3.667s3.333 1.642 3.333 3.667z"></path>
<path fill="#e64c3c" style="fill: var(--color15, #e64c3c)" d="M24 16c0 2.025-1.492 3.667-3.333 3.667s-3.333-1.642-3.333-3.667c0-2.025 1.492-3.667 3.333-3.667s3.333 1.642 3.333 3.667z"></path>
<path fill="#e64c3c" style="fill: var(--color15, #e64c3c)" d="M14.667 16c0 2.025-1.492 3.667-3.333 3.667s-3.333-1.642-3.333-3.667c0-2.025 1.492-3.667 3.333-3.667s3.333 1.642 3.333 3.667z"></path>
<path fill="#c03a2b" style="fill: var(--color16, #c03a2b)" d="M19.329 7.897c0.001 0.035 0.005 0.069 0.005 0.103 0 2.025-1.493 3.667-3.333 3.667s-3.333-1.641-3.333-3.667c0-0.035 0.004-0.069 0.005-0.103-1.61 0.957-2.671 2.586-2.671 4.437 0 0.101 0.011 0.199 0.017 0.298 0.404-0.191 0.849-0.298 1.317-0.298 1.841 0 3.333 1.641 3.333 3.667 0 0.521-0.101 1.017-0.279 1.466 0.514 0.127 1.053 0.201 1.613 0.201s1.099-0.073 1.613-0.201c-0.179-0.449-0.279-0.945-0.279-1.466 0-2.025 1.493-3.667 3.333-3.667 0.468 0 0.913 0.107 1.317 0.298 0.006-0.099 0.017-0.197 0.017-0.298 0-1.851-1.061-3.48-2.671-4.437z"></path>
</symbol>
<symbol id="achievement" viewBox="0 0 32 32">
<path fill="#fff2d4" style="fill: var(--color17, #fff2d4)" d="M28.813 5.519v25h-25v-25h2.095c-0.002 0.001-0.004 0.003-0.006 0.004h22.203c0.041 0 0.081-0.001 0.122-0.004h0.586zM20.688 9.269v-1.25h-1.25v1.25h1.25zM18.188 9.269v-1.25h-1.25v1.25h1.25zM15.688 9.269v-1.25h-1.25v1.25h1.25zM13.188 9.269v-1.25h-1.25v1.25h1.25z"></path>
<path fill="#e5d0a8" style="fill: var(--color18, #e5d0a8)" d="M4.547 18.098v-11.875h2.095c-0.002 0.001-0.004 0.003-0.006 0.004h22.176v-0.707h-0.586c-0.041 0.003-0.081 0.004-0.122 0.004h-22.203c0.002-0.001 0.004-0.003 0.006-0.004h-2.095v25h0.734v-12.422z"></path>
<path fill="#d65b5b" style="fill: var(--color19, #d65b5b)" d="M8.813 25.519c0.704 0 1.352-0.233 1.875-0.625v3.75l-1.875-1.25-1.875 1.25v-3.75c0.522 0.392 1.171 0.625 1.875 0.625z"></path>
<path fill="#c45353" style="fill: var(--color20, #c45353)" d="M7.156 25.436c0.522 0.392 1.171 0.625 1.875 0.625 0.609 0 1.176-0.174 1.656-0.475v-0.692c-0.523 0.392-1.171 0.625-1.875 0.625s-1.353-0.233-1.875-0.625v3.75l0.219-0.146v-3.063z"></path>
<path fill="#ff7979" style="fill: var(--color21, #ff7979)" d="M11.938 22.394c0 1.023-0.491 1.93-1.25 2.5-0.523 0.392-1.171 0.625-1.875 0.625s-1.353-0.233-1.875-0.625c-0.759-0.57-1.25-1.477-1.25-2.5 0-1.726 1.399-3.125 3.125-3.125s3.125 1.399 3.125 3.125z"></path>
<path fill="#d65b5b" style="fill: var(--color19, #d65b5b)" d="M6.167 23.353c0-1.726 1.399-3.125 3.125-3.125 1.031 0 1.945 0.5 2.515 1.27-0.386-1.289-1.58-2.228-2.994-2.228-1.726 0-3.125 1.399-3.125 3.125 0 0.694 0.227 1.335 0.61 1.854-0.085-0.284-0.131-0.584-0.131-0.896z"></path>
<path fill="#e2bf7f" style="fill: var(--color22, #e2bf7f)" d="M5.959 1.578c0.634 0.432 1.037 1.152 1.037 1.958 0 0.833-0.43 1.579-1.089 1.983h-2.095v11.875h-1.875v-13.125c0-1.641 1.257-2.922 2.899-2.777l1.123 0.086z"></path>
<path fill="#d1ad74" style="fill: var(--color23, #d1ad74)" d="M2.422 4.879c0-1.641 1.258-2.922 2.899-2.777l1.123 0.086c0.091 0.062 0.176 0.13 0.256 0.203-0.179-0.323-0.432-0.602-0.741-0.812l-1.123-0.086c-1.641-0.144-2.899 1.136-2.899 2.777v13.125h0.484v-12.516z"></path>
<path fill="#f7d794" style="fill: var(--color24, #f7d794)" d="M29.494 2.161c0.352 0.36 0.569 0.856 0.569 1.404 0 1.026-0.8 1.891-1.836 1.954h-22.319c0.659-0.404 1.089-1.151 1.089-1.983 0-0.806-0.403-1.526-1.037-1.958h22.145c0.547 0 1.037 0.223 1.389 0.583z"></path>
<path fill="#e2bf7f" style="fill: var(--color22, #e2bf7f)" d="M5.907 5.519h0.553c0.225-0.337 0.365-0.738 0.391-1.166-0.178 0.488-0.511 0.901-0.943 1.166z"></path>
<path fill="#e2bf7f" style="fill: var(--color22, #e2bf7f)" d="M6.616 2.25h21.348c0.547 0 1.037 0.223 1.389 0.583s0.569 0.856 0.569 1.404c0 0.020-0.001 0.040-0.001 0.059 0.092-0.227 0.142-0.474 0.142-0.731 0-0.547-0.216-1.044-0.569-1.404s-0.843-0.583-1.389-0.583h-22.145c0.263 0.179 0.485 0.408 0.656 0.672z"></path>
<path fill="#000" style="fill: var(--color11, #000)" d="M19.438 8.019h1.25v1.25h-1.25v-1.25z"></path>
<path fill="#000" style="fill: var(--color11, #000)" d="M16.938 8.019h1.25v1.25h-1.25v-1.25z"></path>
<path fill="#000" style="fill: var(--color11, #000)" d="M14.438 8.019h1.25v1.25h-1.25v-1.25z"></path>
<path fill="#000" style="fill: var(--color11, #000)" d="M11.938 8.019h1.25v1.25h-1.25v-1.25z"></path>
<path fill="#000" style="fill: var(--color11, #000)" d="M28.813 30.832h-25c-0.173 0-0.313-0.14-0.313-0.313v-25c0-0.173 0.14-0.313 0.313-0.313h25c0.173 0 0.313 0.14 0.313 0.313v25c0 0.173-0.14 0.313-0.313 0.313zM4.125 30.207h24.375v-24.375h-24.375v24.375z"></path>
<path fill="#000" style="fill: var(--color11, #000)" d="M28.104 5.836h-22.203c-0.173 0-0.313-0.14-0.313-0.313s0.14-0.313 0.313-0.313h22.203c0.034 0 0.068-0.001 0.103-0.003 0.865-0.053 1.543-0.774 1.543-1.642 0-0.448-0.17-0.869-0.48-1.185s-0.723-0.489-1.166-0.489h-22.145c-0.173 0-0.313-0.14-0.313-0.313s0.14-0.313 0.313-0.313h22.145c0.613 0 1.185 0.24 1.613 0.677 0.424 0.433 0.658 1.010 0.658 1.622 0 1.198-0.936 2.194-2.13 2.266-0.047 0.003-0.094 0.004-0.141 0.004z"></path>
<path fill="#000" style="fill: var(--color11, #000)" d="M3.813 17.707h-1.875c-0.173 0-0.313-0.14-0.313-0.313v-13.125c0-0.911 0.363-1.766 0.996-2.346 0.604-0.553 1.4-0.817 2.243-0.743l1.12 0.086c0.054 0.004 0.107 0.023 0.152 0.053 0.735 0.501 1.173 1.329 1.173 2.216 0 0.173-0.14 0.313-0.313 0.313s-0.313-0.14-0.313-0.313c0-0.653-0.311-1.265-0.835-1.653l-1.037-0.080c-0.669-0.059-1.296 0.148-1.769 0.581-0.504 0.462-0.793 1.149-0.793 1.885v12.813h1.563c0.173 0 0.313 0.14 0.313 0.313s-0.14 0.313-0.313 0.313z"></path>
<path fill="#000" style="fill: var(--color11, #000)" d="M5.905 5.832c-0.101 0-0.2-0.048-0.26-0.137-0.096-0.143-0.061-0.336 0.082-0.432 0.004-0.002 0.013-0.009 0.017-0.011 0.58-0.355 0.94-1.013 0.94-1.717 0-0.173 0.14-0.313 0.313-0.313s0.313 0.14 0.313 0.313c0 0.919-0.474 1.78-1.237 2.249-0.052 0.032-0.11 0.048-0.167 0.048z"></path>
<path fill="#000" style="fill: var(--color11, #000)" d="M24.438 12.082h-16.875c-0.173 0-0.313-0.14-0.313-0.313s0.14-0.313 0.313-0.313h16.875c0.173 0 0.313 0.14 0.313 0.313s-0.14 0.313-0.313 0.313z"></path>
<path fill="#000" style="fill: var(--color11, #000)" d="M24.438 14.582h-16.875c-0.173 0-0.313-0.14-0.313-0.313s0.14-0.313 0.313-0.313h16.875c0.173 0 0.313 0.14 0.313 0.313s-0.14 0.313-0.313 0.313z"></path>
<path fill="#000" style="fill: var(--color11, #000)" d="M24.438 17.082h-11.875c-0.173 0-0.313-0.14-0.313-0.313s0.14-0.313 0.313-0.313h11.875c0.173 0 0.313 0.14 0.313 0.313s-0.14 0.313-0.313 0.313z"></path>
<path fill="#000" style="fill: var(--color11, #000)" d="M24.438 19.582h-11.25c-0.173 0-0.313-0.14-0.313-0.313s0.14-0.313 0.313-0.313h11.25c0.173 0 0.313 0.14 0.313 0.313s-0.14 0.313-0.313 0.313z"></path>
<path fill="#000" style="fill: var(--color11, #000)" d="M24.438 22.082h-10c-0.173 0-0.313-0.14-0.313-0.313s0.14-0.313 0.313-0.313h10c0.173 0 0.313 0.14 0.313 0.313s-0.14 0.313-0.313 0.313z"></path>
<path fill="#000" style="fill: var(--color11, #000)" d="M10.688 28.957c-0.061 0-0.121-0.018-0.173-0.052l-1.702-1.134-1.702 1.134c-0.096 0.064-0.219 0.070-0.321 0.015s-0.165-0.16-0.165-0.276v-3.75c0-0.173 0.14-0.313 0.313-0.313s0.313 0.14 0.313 0.313v3.166l1.389-0.926c0.105-0.070 0.242-0.070 0.347 0l1.389 0.926v-3.166c0-0.173 0.14-0.313 0.313-0.313s0.313 0.14 0.313 0.313v3.75c0 0.115-0.063 0.221-0.165 0.276-0.046 0.025-0.097 0.037-0.147 0.037z"></path>
<path fill="#000" style="fill: var(--color11, #000)" d="M8.813 25.832c-0.751 0-1.464-0.238-2.063-0.688-0.874-0.656-1.375-1.659-1.375-2.75 0-1.895 1.542-3.438 3.438-3.438s3.438 1.542 3.438 3.438c0 1.091-0.501 2.094-1.375 2.75-0.599 0.45-1.312 0.688-2.063 0.688zM8.813 19.582c-1.551 0-2.813 1.262-2.813 2.813 0 0.893 0.41 1.713 1.125 2.25 0.49 0.368 1.073 0.562 1.687 0.562s1.198-0.194 1.687-0.562c0.715-0.537 1.125-1.357 1.125-2.25 0-1.551-1.262-2.813-2.813-2.813z"></path>
</symbol>
<symbol id="market" viewBox="0 0 32 32">
<path fill="#ada7a4" style="fill: var(--color25, #ada7a4)" d="M4.551 12.113v19.176h14.507l2.667-1.422 2.667 1.422h3.058v-19.176z"></path>
<path fill="#181818" style="fill: var(--color26, #181818)" d="M19.058 19.698h5.333v11.591h-5.333v-11.591z"></path>
<path fill="#fff" style="fill: var(--color27, #fff)" d="M7.609 19.698h8.391v8.533h-8.391v-8.533z"></path>
<path fill="#ffb14d" style="fill: var(--color28, #ffb14d)" d="M7.396 0.711h17.209v3.982h-17.209v-3.982z"></path>
<path fill="#ee3840" style="fill: var(--color29, #ee3840)" d="M4.551 7.538l-2.133 4.575 4.527 1.422 4.527-1.422 1.761-2.287-1.050-2.287z"></path>
<path fill="#ee3840" style="fill: var(--color29, #ee3840)" d="M27.449 7.538l2.133 4.575-4.527 1.422-4.527-1.422-1.761-2.287 1.050-2.287z"></path>
<path fill="#c21b23" style="fill: var(--color30, #c21b23)" d="M2.418 12.113c0 2.501 2.027 4.527 4.527 4.527s4.527-2.027 4.527-4.527h-9.055z"></path>
<path fill="#ffe1d6" style="fill: var(--color31, #ffe1d6)" d="M19.816 7.538h-7.633l-0.711 4.575 4.527 1.422 4.527-1.422z"></path>
<path fill="#ffb14d" style="fill: var(--color28, #ffb14d)" d="M11.473 12.113c0 2.501 2.027 4.527 4.527 4.527s4.527-2.027 4.527-4.527h-9.055z"></path>
<path fill="#c21b23" style="fill: var(--color30, #c21b23)" d="M20.527 12.113c0 2.5 2.027 4.527 4.527 4.527s4.527-2.027 4.527-4.527h-9.055z"></path>
<path fill="#11113f" style="fill: var(--color32, #11113f)" d="M24.391 32c-0.393 0-0.711-0.318-0.711-0.711v-10.88h-3.911v10.88c0 0.393-0.318 0.711-0.711 0.711s-0.711-0.318-0.711-0.711v-11.591c0-0.393 0.318-0.711 0.711-0.711h5.333c0.393 0 0.711 0.318 0.711 0.711v11.591c0 0.393-0.318 0.711-0.711 0.711z"></path>
<path fill="#11113f" style="fill: var(--color32, #11113f)" d="M16 28.942h-8.391c-0.393 0-0.711-0.318-0.711-0.711v-8.533c0-0.393 0.318-0.711 0.711-0.711h8.391c0.393 0 0.711 0.318 0.711 0.711v8.533c0 0.393-0.318 0.711-0.711 0.711zM8.32 27.52h6.969v-7.111h-6.969v7.111z"></path>
<path fill="#11113f" style="fill: var(--color32, #11113f)" d="M24.604 5.404h-17.209c-0.393 0-0.711-0.318-0.711-0.711v-3.982c0-0.393 0.318-0.711 0.711-0.711h17.209c0.393 0 0.711 0.318 0.711 0.711v3.982c0 0.393-0.318 0.711-0.711 0.711zM8.107 3.982h15.787v-2.56h-15.787v2.56z"></path>
<path fill="#11113f" style="fill: var(--color32, #11113f)" d="M27.449 32h-22.898c-0.393 0-0.711-0.318-0.711-0.711v-14.796c0-0.393 0.318-0.711 0.711-0.711s0.711 0.318 0.711 0.711v14.085h21.476v-14.085c0-0.393 0.318-0.711 0.711-0.711s0.711 0.318 0.711 0.711v14.796c-0 0.393-0.319 0.711-0.711 0.711z"></path>
<path fill="#11113f" style="fill: var(--color32, #11113f)" d="M25.055 17.351c-1.929 0-3.618-1.048-4.527-2.605-0.909 1.557-2.598 2.605-4.527 2.605s-3.618-1.048-4.527-2.605c-0.909 1.557-2.598 2.605-4.527 2.605-2.889 0-5.239-2.35-5.239-5.239 0-0.104 0.023-0.206 0.067-0.301l2.133-4.575c0.117-0.25 0.368-0.41 0.644-0.41h22.898c0.276 0 0.528 0.16 0.645 0.41l2.133 4.575c0.044 0.094 0.067 0.197 0.067 0.301 0 2.889-2.35 5.239-5.238 5.239zM21.239 12.113c0 2.104 1.712 3.816 3.816 3.816 2.054 0 3.734-1.63 3.813-3.665l-1.872-4.015h-21.992l-1.872 4.015c0.080 2.034 1.76 3.665 3.813 3.665 2.104 0 3.816-1.712 3.816-3.816 0-0.393 0.318-0.711 0.711-0.711s0.711 0.318 0.711 0.711c0 2.104 1.712 3.816 3.816 3.816s3.816-1.712 3.816-3.816c0-0.393 0.318-0.711 0.711-0.711s0.711 0.318 0.711 0.711z"></path>
<path fill="#11113f" style="fill: var(--color32, #11113f)" d="M27.449 12.824h-22.898c-0.393 0-0.711-0.318-0.711-0.711s0.318-0.711 0.711-0.711h22.898c0.393 0 0.711 0.318 0.711 0.711s-0.318 0.711-0.711 0.711z"></path>
<path fill="#11113f" style="fill: var(--color32, #11113f)" d="M8.818 8.249c-0.393 0-0.711-0.318-0.711-0.711v-2.844c0-0.393 0.318-0.711 0.711-0.711s0.711 0.318 0.711 0.711v2.844c0 0.393-0.318 0.711-0.711 0.711z"></path>
<path fill="#11113f" style="fill: var(--color32, #11113f)" d="M23.182 8.249c-0.393 0-0.711-0.318-0.711-0.711v-2.844c0-0.393 0.318-0.711 0.711-0.711s0.711 0.318 0.711 0.711v2.844c-0 0.393-0.319 0.711-0.711 0.711z"></path>
<path fill="#11113f" style="fill: var(--color32, #11113f)" d="M11.805 10.69c-0.036 0-0.073-0.003-0.11-0.009-0.388-0.060-0.654-0.424-0.593-0.812l0.38-2.441c0.060-0.388 0.425-0.654 0.812-0.593s0.654 0.424 0.593 0.812l-0.38 2.441c-0.055 0.351-0.357 0.602-0.702 0.602z"></path>
<path fill="#11113f" style="fill: var(--color32, #11113f)" d="M20.195 10.69c-0.345 0-0.647-0.251-0.702-0.602l-0.38-2.441c-0.060-0.388 0.205-0.752 0.593-0.812s0.752 0.205 0.812 0.593l0.38 2.441c0.060 0.388-0.205 0.752-0.593 0.812-0.037 0.006-0.074 0.008-0.11 0.008z"></path>
</symbol>
<symbol id="alien-2players" viewBox="0 0 32 32">
<path fill="#ff9737" style="fill: var(--color33, #ff9737)" d="M24.435 24.744v-1.163c0-1.729-1.402-3.131-3.131-3.131h-2.182c-0.637 1.058-1.796 1.767-3.121 1.767s-2.484-0.709-3.121-1.767h-2.36c-1.729 0-3.131 1.402-3.131 3.131v7.914h17.047v-5z"></path>
<path fill="#231f20" style="fill: var(--color9, #231f20)" opacity="0.2" d="M12.093 20.45h-1.574c-1.729 0-3.131 1.402-3.131 3.131v7.914h1.574v-7.914c0-1.729 1.402-3.131 3.131-3.131z"></path>
<path fill="#ff9737" style="fill: var(--color33, #ff9737)" d="M17.271 1.865c0 0.751-0.609 1.36-1.36 1.36s-1.36-0.609-1.36-1.359c0-0.751 0.609-1.359 1.36-1.359s1.36 0.609 1.36 1.359z"></path>
<path fill="#90c8ec" style="fill: var(--color34, #90c8ec)" d="M23.513 13.303c0-4.149-3.363-7.513-7.512-7.513s-7.513 3.364-7.513 7.513c0 2.95 1.7 5.502 4.174 6.731 0.563 1.285 1.846 2.183 3.338 2.183s2.775-0.898 3.338-2.183c2.474-1.229 4.174-3.781 4.174-6.731z"></path>
<path fill="#ffd960" style="fill: var(--color35, #ffd960)" d="M14.605 13.393c0 0.957-0.776 1.733-1.733 1.733s-1.733-0.776-1.733-1.733c0-0.957 0.776-1.733 1.733-1.733s1.733 0.776 1.733 1.733z"></path>
<path fill="#ffd960" style="fill: var(--color35, #ffd960)" d="M20.684 13.393c0 0.957-0.776 1.733-1.733 1.733s-1.733-0.776-1.733-1.733c0-0.957 0.776-1.733 1.733-1.733s1.733 0.776 1.733 1.733z"></path>
<path fill="#578cad" style="fill: var(--color36, #578cad)" d="M8.487 13.303c0-1.215 0.29-2.362 0.803-3.378-1.722-1.725-3.901-2.335-4.946-1.353-1.081 1.015-0.542 3.346 1.205 5.207 1.045 1.114 2.286 1.807 3.345 1.966-0.263-0.766-0.407-1.587-0.407-2.442z"></path>
<path fill="#578cad" style="fill: var(--color36, #578cad)" d="M27.656 8.572c-1.046-0.981-3.224-0.371-4.946 1.353 0.512 1.016 0.802 2.162 0.802 3.378 0 0.855-0.144 1.677-0.407 2.442 1.060-0.16 2.3-0.852 3.346-1.966 1.747-1.861 2.286-4.193 1.205-5.207z"></path>
<path fill="#231f20" style="fill: var(--color9, #231f20)" d="M15.11 13.393c0-1.234-1.004-2.238-2.239-2.238s-2.238 1.004-2.238 2.238 1.004 2.238 2.238 2.238c1.234 0 2.239-1.004 2.239-2.238zM12.872 14.621c-0.677 0-1.228-0.551-1.228-1.228s0.551-1.228 1.228-1.228c0.677 0 1.228 0.551 1.228 1.228s-0.551 1.228-1.228 1.228z"></path>
<path fill="#231f20" style="fill: var(--color9, #231f20)" d="M18.951 11.155c-1.234 0-2.238 1.004-2.238 2.238s1.004 2.238 2.238 2.238 2.238-1.004 2.238-2.238-1.004-2.238-2.238-2.238zM18.951 14.621c-0.677 0-1.228-0.551-1.228-1.228s0.551-1.228 1.228-1.228 1.228 0.551 1.228 1.228c0 0.677-0.551 1.228-1.228 1.228z"></path>
<path fill="#231f20" style="fill: var(--color9, #231f20)" d="M17.795 17.111c-0.274-0.051-0.538 0.131-0.588 0.406-0.107 0.582-0.614 1.005-1.206 1.005s-1.099-0.422-1.206-1.005c-0.050-0.274-0.313-0.456-0.588-0.406s-0.456 0.314-0.406 0.588c0.195 1.062 1.12 1.833 2.2 1.833s2.005-0.771 2.2-1.833c0.050-0.274-0.131-0.538-0.406-0.588z"></path>
<path fill="#231f20" style="fill: var(--color9, #231f20)" d="M28.002 8.203c-0.422-0.396-0.998-0.606-1.665-0.606-1.101 0-2.375 0.56-3.499 1.522-1.328-2.163-3.654-3.651-6.332-3.818v-1.466c0-0.068-0.014-0.132-0.038-0.191 0.757-0.237 1.308-0.945 1.308-1.78 0-1.028-0.836-1.865-1.865-1.865s-1.865 0.837-1.865 1.865c0 0.893 0.631 1.641 1.47 1.822-0.014 0.047-0.022 0.097-0.022 0.149v1.466c-2.678 0.167-5.003 1.655-6.332 3.818-1.125-0.961-2.398-1.522-3.499-1.522-0.667 0-1.243 0.209-1.665 0.606-0.66 0.619-0.874 1.602-0.605 2.769 0.247 1.069 0.882 2.189 1.787 3.153 1.003 1.069 2.203 1.806 3.338 2.062 0.187 0.485 0.421 0.953 0.701 1.397 0.595 0.94 1.376 1.742 2.29 2.361h-0.991c-2.005 0-3.636 1.631-3.636 3.636v7.914c0 0.279 0.226 0.505 0.505 0.505h17.047c0.279 0 0.505-0.226 0.505-0.505v-5c0-0.279-0.226-0.505-0.505-0.505s-0.505 0.226-0.505 0.505v4.494h-2.629v-4.794c0-0.279-0.226-0.505-0.505-0.505s-0.505 0.226-0.505 0.505v4.794h-8.543v-4.794c0-0.279-0.226-0.505-0.505-0.505s-0.505 0.226-0.505 0.505v4.794h-2.843v-7.408c0-1.448 1.178-2.626 2.626-2.626h2.085c0.092 0.132 0.192 0.257 0.298 0.377 0.007 0.008 0.013 0.015 0.020 0.023 0.009 0.010 0.018 0.020 0.027 0.029 0.709 0.775 1.681 1.25 2.745 1.327 0.006 0 0.012 0.001 0.019 0.001 0.039 0.003 0.079 0.005 0.118 0.006 0.010 0 0.019 0.001 0.029 0.001 0.047 0.002 0.094 0.003 0.141 0.003s0.094-0.001 0.141-0.003c0.010-0 0.019-0.001 0.029-0.001 0.040-0.002 0.079-0.004 0.118-0.006 0.006-0 0.012-0.001 0.018-0.001 1.067-0.077 2.043-0.555 2.752-1.335 0.006-0.006 0.011-0.012 0.017-0.018 0.012-0.013 0.024-0.027 0.035-0.040 0.101-0.115 0.197-0.236 0.286-0.362h1.907c1.448 0 2.626 1.178 2.626 2.626v1.163c0 0.279 0.226 0.505 0.505 0.505s0.505-0.226 0.505-0.505v-1.163c0-2.005-1.631-3.636-3.636-3.636h-0.814c0.914-0.619 1.695-1.42 2.29-2.361 0.281-0.444 0.514-0.912 0.701-1.397 1.135-0.256 2.335-0.993 3.338-2.062 1.967-2.096 2.487-4.698 1.182-5.922zM15.057 1.865c0-0.471 0.383-0.854 0.854-0.854s0.854 0.383 0.854 0.854-0.383 0.854-0.854 0.854-0.854-0.383-0.854-0.854zM8.168 15.023c-0.768-0.303-1.568-0.863-2.251-1.59-0.785-0.836-1.331-1.791-1.539-2.689-0.185-0.801-0.075-1.441 0.311-1.804 0.235-0.22 0.562-0.332 0.974-0.332 0.905 0 2.036 0.541 3.014 1.43-0.016 0.035-0.031 0.071-0.046 0.107-0.007 0.017-0.015 0.034-0.022 0.050-0.021 0.049-0.041 0.099-0.061 0.149-0.004 0.010-0.008 0.020-0.012 0.030-0.022 0.056-0.044 0.113-0.065 0.17-0.001 0.002-0.002 0.005-0.003 0.007-0.299 0.814-0.462 1.666-0.484 2.544-0.002 0.069-0.003 0.138-0.003 0.208 0 0.086 0.002 0.172 0.005 0.258 0.001 0.025 0.002 0.050 0.003 0.075 0.003 0.063 0.006 0.127 0.010 0.19 0.002 0.025 0.003 0.051 0.005 0.076 0.006 0.076 0.012 0.152 0.020 0.228 0.001 0.009 0.002 0.019 0.003 0.028 0.009 0.086 0.020 0.172 0.032 0.257 0.003 0.021 0.006 0.042 0.009 0.063 0.009 0.064 0.020 0.128 0.031 0.192 0.005 0.027 0.009 0.054 0.014 0.081 0.011 0.062 0.023 0.123 0.036 0.185 0.005 0.023 0.009 0.047 0.014 0.070 0.001 0.006 0.002 0.012 0.003 0.018zM19.114 19.582c-0.106 0.053-0.19 0.141-0.238 0.25-0.052 0.119-0.111 0.233-0.176 0.342-0.003 0.005-0.008 0.010-0.011 0.015-0.138 0.23-0.302 0.436-0.486 0.619-0.013 0.013-0.026 0.025-0.039 0.038-0.031 0.030-0.063 0.058-0.095 0.087-0.389 0.341-0.859 0.583-1.369 0.7-0.008 0.002-0.016 0.004-0.024 0.005-0.035 0.008-0.070 0.015-0.106 0.022-0.042 0.008-0.084 0.015-0.127 0.021-0.022 0.003-0.045 0.006-0.067 0.009-0.052 0.006-0.105 0.012-0.158 0.015-0.012 0.001-0.024 0.001-0.036 0.002-0.061 0.003-0.122 0.006-0.184 0.006s-0.123-0.002-0.184-0.006c-0.012-0.001-0.024-0.001-0.036-0.002-0.053-0.004-0.105-0.009-0.158-0.015-0.022-0.003-0.044-0.005-0.066-0.009-0.043-0.006-0.087-0.013-0.13-0.021-0.034-0.006-0.068-0.013-0.102-0.021-0.009-0.002-0.018-0.004-0.027-0.006-0.508-0.117-0.977-0.358-1.364-0.697-0.034-0.030-0.067-0.060-0.1-0.091-0.011-0.011-0.023-0.022-0.034-0.033-0.185-0.183-0.349-0.391-0.489-0.621-0.003-0.005-0.007-0.010-0.011-0.015-0.065-0.11-0.124-0.224-0.176-0.342-0.048-0.108-0.132-0.197-0.238-0.25-1.678-0.834-2.911-2.26-3.503-3.958-0.004-0.014-0.007-0.029-0.012-0.043-0.155-0.453-0.263-0.918-0.323-1.391-0.002-0.013-0.003-0.025-0.005-0.038-0.009-0.075-0.017-0.151-0.023-0.227-0.002-0.022-0.004-0.044-0.006-0.066-0.005-0.070-0.009-0.139-0.013-0.209-0.001-0.024-0.003-0.047-0.004-0.071-0.004-0.091-0.006-0.183-0.006-0.275 0-0.064 0.001-0.128 0.003-0.192 0.001-0.028 0.002-0.056 0.003-0.085 0.001-0.034 0.003-0.068 0.004-0.103 0.002-0.037 0.005-0.075 0.007-0.112 0.002-0.023 0.003-0.046 0.005-0.069 0.004-0.044 0.008-0.089 0.012-0.133 0.001-0.014 0.003-0.027 0.004-0.040 0.005-0.052 0.011-0.104 0.018-0.155 0-0.001 0-0.002 0.001-0.004 0.080-0.622 0.241-1.219 0.474-1.78 0.010-0.024 0.019-0.047 0.029-0.071 0.013-0.029 0.026-0.059 0.038-0.088s0.027-0.060 0.041-0.090c0.012-0.027 0.025-0.053 0.037-0.079 0.015-0.031 0.030-0.062 0.045-0.093 1.145-2.316 3.532-3.913 6.286-3.913 2.763 0 5.157 1.608 6.297 3.937 0.009 0.019 0.018 0.038 0.028 0.057 0.017 0.035 0.034 0.071 0.050 0.107 0.009 0.020 0.018 0.040 0.027 0.059 0.017 0.038 0.034 0.076 0.050 0.114 0.005 0.012 0.010 0.024 0.015 0.035 0.258 0.616 0.43 1.276 0.503 1.966 0.001 0.013 0.003 0.025 0.004 0.038 0.004 0.045 0.008 0.090 0.012 0.135 0.002 0.023 0.003 0.045 0.005 0.068 0.003 0.038 0.005 0.076 0.007 0.114 0.002 0.034 0.003 0.068 0.004 0.102 0.001 0.028 0.003 0.057 0.003 0.085 0.002 0.064 0.003 0.128 0.003 0.192 0 0.092-0.002 0.183-0.006 0.275-0.001 0.024-0.003 0.048-0.004 0.073-0.003 0.069-0.007 0.139-0.013 0.208-0.002 0.023-0.004 0.046-0.006 0.069-0.007 0.075-0.014 0.149-0.023 0.224-0.002 0.014-0.003 0.028-0.005 0.041-0.060 0.473-0.168 0.938-0.323 1.389-0.005 0.014-0.008 0.028-0.011 0.041-0.591 1.698-1.824 3.125-3.503 3.959zM26.083 13.434c-0.683 0.727-1.482 1.287-2.251 1.59 0.001-0.006 0.003-0.013 0.004-0.019 0.005-0.021 0.009-0.043 0.013-0.064 0.013-0.063 0.026-0.127 0.037-0.191 0.005-0.026 0.009-0.052 0.014-0.077 0.011-0.065 0.022-0.13 0.031-0.196 0.003-0.020 0.006-0.040 0.009-0.060 0.012-0.086 0.023-0.172 0.032-0.258 0.001-0.009 0.002-0.018 0.003-0.027 0.008-0.076 0.015-0.153 0.020-0.229 0.002-0.025 0.003-0.050 0.005-0.075 0.004-0.063 0.008-0.127 0.010-0.191 0.001-0.025 0.002-0.050 0.003-0.075 0.003-0.086 0.005-0.172 0.005-0.258 0-0.069-0.001-0.139-0.003-0.208-0.024-0.945-0.21-1.859-0.554-2.729-0-0.001-0-0.001-0.001-0.002-0.023-0.059-0.048-0.118-0.073-0.177-0.002-0.004-0.004-0.008-0.005-0.013-0.020-0.046-0.039-0.091-0.059-0.137 0.977-0.889 2.108-1.43 3.013-1.43 0.411 0 0.739 0.112 0.974 0.332 0.861 0.808 0.299 2.866-1.228 4.493z"></path>
<path fill="#231f20" style="fill: var(--color9, #231f20)" opacity="0.2" d="M17.46 21.476c-1.493 0-2.775-0.898-3.338-2.183-2.474-1.229-4.174-3.781-4.174-6.731 0-2.634 1.355-4.95 3.406-6.292-2.843 1.071-4.866 3.815-4.866 7.033 0 2.95 1.7 5.502 4.174 6.731 0.563 1.285 1.846 2.183 3.338 2.183 0.889 0 1.704-0.319 2.336-0.848-0.281 0.069-0.574 0.107-0.876 0.107z"></path>
<path fill="#231f20" style="fill: var(--color9, #231f20)" opacity="0.2" d="M7.076 13.21c-1.747-1.741-2.286-3.922-1.205-4.871 0.086-0.075 0.18-0.139 0.28-0.195-0.724-0.116-1.366 0.014-1.807 0.427-1.081 1.015-0.542 3.346 1.205 5.207 1.045 1.114 2.286 1.807 3.345 1.966-0.152-0.444-0.263-0.906-0.331-1.383-0.512-0.299-1.019-0.686-1.487-1.152z"></path>
<path fill="#231f20" style="fill: var(--color9, #231f20)" opacity="0.2" d="M16.079 1.865c0-0.468 0.236-0.88 0.596-1.125-0.218-0.148-0.48-0.235-0.764-0.235-0.751 0-1.359 0.609-1.359 1.359s0.609 1.359 1.359 1.359c0.283 0 0.546-0.087 0.764-0.235-0.36-0.245-0.596-0.657-0.596-1.125z"></path>
</symbol>
<symbol id="alien-1player" viewBox="0 0 32 32">
<path fill="#90c8ec" style="fill: var(--color34, #90c8ec)" d="M11.876 31.495h-3.41c-0.705 0-1.277-0.572-1.277-1.277v-0.142c0-0.706 0.572-1.277 1.277-1.277h15.069c0.705 0 1.277 0.572 1.277 1.277v0.142c0 0.706-0.572 1.277-1.277 1.277h-9.974z"></path>
<path fill="#3a5d74" style="fill: var(--color37, #3a5d74)" d="M20.57 15.811h-1.31c-0.666 1.105-1.875 1.845-3.259 1.845s-2.593-0.74-3.259-1.845h-1.495c-1.495 0-2.707 1.212-2.707 2.707v10.28h14.738v-10.28c0-1.495-1.212-2.707-2.707-2.707z"></path>
<path fill="#59c384" style="fill: var(--color38, #59c384)" d="M23.844 8.349c0-4.332-3.512-7.844-7.844-7.844s-7.844 3.512-7.844 7.844c0 3.080 1.775 5.745 4.358 7.028 0.588 1.342 1.927 2.279 3.486 2.279s2.898-0.938 3.486-2.279c2.583-1.284 4.358-3.948 4.358-7.028z"></path>
<path fill="#231f20" style="fill: var(--color9, #231f20)" opacity="0.2" d="M17.027 16.444c-1.559 0-2.898-0.938-3.486-2.279-2.583-1.284-4.358-3.948-4.358-7.028 0-1.646 0.508-3.174 1.374-4.436-1.48 1.427-2.402 3.43-2.402 5.648 0 3.080 1.775 5.745 4.358 7.028 0.588 1.342 1.927 2.279 3.486 2.279 1.45 0 2.71-0.812 3.352-2.006-0.643 0.497-1.449 0.793-2.325 0.793z"></path>
<path fill="#3a5d74" style="fill: var(--color37, #3a5d74)" d="M20.96 6.973c-0.799-0.623-2.118-0.268-2.946 0.794s-0.851 2.427-0.052 3.050c0.799 0.623 2.118 0.268 2.945-0.794s0.851-2.427 0.052-3.050z"></path>
<path fill="#3a5d74" style="fill: var(--color37, #3a5d74)" d="M11.093 10.024c-0.828-1.062-0.851-2.427-0.052-3.050s2.118-0.267 2.945 0.794c0.828 1.062 0.851 2.427 0.052 3.050s-2.118 0.267-2.945-0.794z"></path>
<path fill="#231f20" style="fill: var(--color9, #231f20)" opacity="0.2" d="M8.805 30.217v-0.142c0-0.706 0.572-1.277 1.277-1.277h-1.617c-0.705 0-1.277 0.572-1.277 1.277v0.142c0 0.706 0.572 1.277 1.277 1.277h1.617c-0.705 0-1.277-0.572-1.277-1.277z"></path>
<path fill="#231f20" style="fill: var(--color9, #231f20)" opacity="0.2" d="M12.743 15.814c-0.001-0.001-0.001-0.002-0.002-0.003h-1.495c-1.495 0-2.707 1.212-2.707 2.707v10.28h1.617v-10.28c0-1.455 1.148-2.641 2.588-2.704z"></path>
<path fill="#231f20" style="fill: var(--color9, #231f20)" opacity="0.2" d="M19.579 10.818c-0.799-0.623-0.776-1.989 0.052-3.050 0.328-0.42 0.732-0.729 1.151-0.911-0.806-0.451-1.999-0.075-2.768 0.911-0.828 1.062-0.851 2.427-0.052 3.050 0.483 0.377 1.155 0.395 1.794 0.117-0.061-0.034-0.121-0.073-0.178-0.117z"></path>
<path fill="#231f20" style="fill: var(--color9, #231f20)" opacity="0.2" d="M12.709 10.024c-0.828-1.062-0.851-2.427-0.052-3.050 0.057-0.044 0.116-0.083 0.178-0.117-0.639-0.278-1.312-0.259-1.795 0.117-0.799 0.623-0.776 1.989 0.052 3.050 0.769 0.986 1.962 1.362 2.768 0.911-0.419-0.182-0.823-0.491-1.151-0.911z"></path>
<path fill="#231f20" style="fill: var(--color9, #231f20)" d="M17.652 11.216c0.347 0.271 0.778 0.414 1.247 0.414 0 0 0 0 0 0 0.875 0 1.775-0.484 2.407-1.295 0.467-0.599 0.731-1.307 0.743-1.992 0.013-0.739-0.264-1.366-0.779-1.768-0.347-0.271-0.779-0.414-1.247-0.414-0.875 0-1.775 0.484-2.407 1.295-0.467 0.599-0.731 1.307-0.743 1.992-0.013 0.739 0.264 1.367 0.779 1.768zM18.413 8.078c0.436-0.559 1.053-0.906 1.61-0.906 0.245 0 0.456 0.067 0.626 0.2 0.258 0.201 0.397 0.54 0.39 0.954-0.008 0.467-0.196 0.96-0.529 1.387-0.436 0.559-1.053 0.906-1.61 0.906h-0c-0.245 0-0.456-0.067-0.626-0.2-0.258-0.201-0.397-0.54-0.39-0.954 0.008-0.467 0.196-0.96 0.529-1.387z"></path>
<path fill="#231f20" style="fill: var(--color9, #231f20)" d="M13.101 11.63c0.469 0 0.9-0.143 1.247-0.414 1.017-0.793 1.033-2.48 0.036-3.759-0.633-0.811-1.532-1.296-2.407-1.296-0.469 0-0.9 0.143-1.247 0.414-1.017 0.793-1.033 2.48-0.036 3.759 0.632 0.811 1.532 1.295 2.407 1.295v0zM11.491 9.713c-0.644-0.826-0.708-1.898-0.14-2.341 0.17-0.133 0.381-0.2 0.626-0.2 0.557 0 1.175 0.347 1.61 0.906 0.644 0.826 0.708 1.898 0.14 2.341-0.17 0.133-0.381 0.2-0.626 0.2-0.557 0-1.175-0.347-1.61-0.906z"></path>
<path fill="#231f20" style="fill: var(--color9, #231f20)" d="M14.168 13.744c-0.123 0.251-0.019 0.553 0.232 0.676l1.378 0.674c0.070 0.034 0.146 0.051 0.222 0.051 0.086 0 0.172-0.022 0.249-0.065l1.193-0.674c0.243-0.137 0.329-0.446 0.191-0.688s-0.446-0.329-0.689-0.191l-0.961 0.543-1.139-0.557c-0.251-0.123-0.553-0.019-0.676 0.232z"></path>
<path fill="#231f20" style="fill: var(--color9, #231f20)" d="M23.782 28.31v-9.792c0-1.756-1.417-3.187-3.167-3.211 0.978-0.65 1.813-1.5 2.446-2.5 0.843-1.332 1.289-2.874 1.289-4.458 0-4.604-3.745-8.349-8.349-8.349s-8.349 3.745-8.349 8.349c0 1.584 0.446 3.126 1.289 4.458 0.633 1 1.467 1.85 2.444 2.499h-0.139c-1.771 0-3.213 1.441-3.213 3.212v9.828c-0.774 0.194-1.35 0.895-1.35 1.729v0.142c0 0.983 0.8 1.783 1.783 1.783h3.41c0.279 0 0.505-0.226 0.505-0.505s-0.226-0.505-0.505-0.505h-3.41c-0.426 0-0.772-0.346-0.772-0.772v-0.142c0-0.426 0.346-0.772 0.772-0.772h15.069c0.426 0 0.772 0.346 0.772 0.772v0.142c0 0.426-0.346 0.772-0.772 0.772h-9.974c-0.279 0-0.505 0.226-0.505 0.505s0.226 0.505 0.505 0.505h9.974c0.983 0 1.783-0.8 1.783-1.783v-0.142c0-0.899-0.669-1.644-1.535-1.765zM8.661 8.349c0-4.047 3.292-7.339 7.339-7.339s7.339 3.292 7.339 7.339c0 2.806-1.563 5.326-4.078 6.576-0.106 0.053-0.19 0.141-0.238 0.25-0.055 0.125-0.117 0.245-0.185 0.36-0.004 0.005-0.008 0.010-0.011 0.016-0.146 0.242-0.318 0.46-0.512 0.652-0.013 0.012-0.025 0.025-0.038 0.037-0.033 0.032-0.068 0.063-0.102 0.094-0.408 0.357-0.901 0.611-1.436 0.734-0.009 0.002-0.018 0.004-0.027 0.006-0.036 0.008-0.072 0.015-0.108 0.022-0.045 0.008-0.090 0.016-0.136 0.022-0.023 0.003-0.047 0.006-0.070 0.009-0.055 0.007-0.11 0.012-0.166 0.016-0.012 0.001-0.025 0.001-0.037 0.002-0.064 0.004-0.129 0.006-0.194 0.006s-0.129-0.003-0.194-0.006c-0.012-0.001-0.025-0.001-0.037-0.002-0.056-0.004-0.111-0.009-0.166-0.016-0.023-0.003-0.047-0.006-0.070-0.009-0.046-0.006-0.091-0.014-0.137-0.022-0.036-0.007-0.072-0.014-0.107-0.022-0.009-0.002-0.019-0.004-0.028-0.006-0.535-0.123-1.027-0.377-1.435-0.734-0.035-0.030-0.069-0.061-0.102-0.093-0.013-0.012-0.026-0.025-0.039-0.038-0.194-0.192-0.366-0.41-0.512-0.652-0.003-0.005-0.007-0.010-0.010-0.014-0.069-0.116-0.131-0.236-0.186-0.362-0.048-0.108-0.132-0.197-0.238-0.25-2.515-1.25-4.078-3.77-4.078-6.576zM20.194 28.293v-7.514c0-0.279-0.226-0.505-0.505-0.505s-0.505 0.226-0.505 0.505v7.514h-6.367v-7.514c0-0.279-0.226-0.505-0.505-0.505s-0.505 0.226-0.505 0.505v7.514h-2.762v-9.774c0-1.214 0.988-2.202 2.202-2.202h1.22c0.094 0.134 0.194 0.262 0.301 0.384 0.011 0.012 0.022 0.025 0.033 0.037 0.008 0.009 0.017 0.018 0.025 0.027 0.737 0.81 1.749 1.305 2.857 1.385 0.006 0 0.013 0.001 0.019 0.001 0.041 0.003 0.082 0.005 0.123 0.007 0.010 0 0.020 0.001 0.030 0.001 0.049 0.002 0.098 0.003 0.147 0.003s0.098-0.001 0.147-0.003c0.010-0 0.020-0.001 0.030-0.001 0.041-0.002 0.082-0.004 0.123-0.007 0.006-0 0.013-0.001 0.019-0.001 1.106-0.080 2.116-0.574 2.853-1.381 0.011-0.011 0.021-0.023 0.032-0.034 0.007-0.008 0.015-0.017 0.022-0.025 0.11-0.124 0.214-0.255 0.31-0.393h1.035c1.214 0 2.202 0.988 2.202 2.202v9.774l-2.577 0z"></path>
</symbol>
<symbol id="alien" viewBox="0 0 32 32">
<path fill="#578cad" style="fill: var(--color36, #578cad)" d="M6.136 29.601c-0.071 0-0.143-0.015-0.213-0.045-0.266-0.118-0.387-0.429-0.269-0.695l1.91-4.324c0.117-0.266 0.429-0.387 0.695-0.269s0.387 0.429 0.269 0.695l-1.91 4.324c-0.087 0.197-0.28 0.314-0.482 0.314z"></path>
<path fill="#578cad" style="fill: var(--color36, #578cad)" d="M25.864 29.601c-0.202 0-0.395-0.117-0.482-0.314l-1.91-4.324c-0.118-0.266 0.003-0.577 0.269-0.695s0.577 0.003 0.695 0.269l1.91 4.324c0.118 0.266-0.003 0.577-0.269 0.695-0.069 0.031-0.141 0.045-0.213 0.045z"></path>
<path fill="#578cad" style="fill: var(--color36, #578cad)" d="M16 29.6c-0.291 0-0.527-0.236-0.527-0.527v-4.324c0-0.291 0.236-0.527 0.527-0.527s0.527 0.236 0.527 0.527v4.324c0 0.291-0.236 0.527-0.527 0.527z"></path>
<path fill="#3a5d74" style="fill: var(--color37, #3a5d74)" d="M8 23.308c-0.717 0-1.297 0.581-1.297 1.297v0.288c0 0.716 0.581 1.297 1.297 1.297h16c0.716 0 1.297-0.581 1.297-1.297v-0.288c0-0.717-0.581-1.297-1.297-1.297h-16z"></path>
<path fill="#231f20" style="fill: var(--color9, #231f20)" opacity="0.1" d="M7.85 24.893v-0.288c0-0.717 0.581-1.297 1.297-1.297h-1.147c-0.717 0-1.297 0.581-1.297 1.297v0.288c0 0.716 0.581 1.297 1.297 1.297h1.147c-0.717-0-1.297-0.581-1.297-1.297z"></path>
<path fill="#cae9f7" style="fill: var(--color39, #cae9f7)" d="M16 9.657c-0.291 0-0.527-0.236-0.527-0.527v-4.738c0-0.291 0.236-0.527 0.527-0.527s0.527 0.236 0.527 0.527v4.738c0 0.291-0.236 0.527-0.527 0.527z"></path>
<path fill="#ff4d30" style="fill: var(--color40, #ff4d30)" d="M17.477 3.877c0 0.816-0.661 1.477-1.477 1.477s-1.477-0.661-1.477-1.477c0-0.816 0.661-1.478 1.477-1.478s1.477 0.662 1.477 1.478z"></path>
<path fill="#90c8ec" style="fill: var(--color34, #90c8ec)" d="M6.398 17.212h19.203c-0.754-4.623-4.765-8.152-9.602-8.152s-8.848 3.529-9.602 8.152z"></path>
<path fill="#3a5d74" style="fill: var(--color37, #3a5d74)" d="M19.495 14.582h-6.991c-0.716 0-1.297 0.581-1.297 1.297v1.333h9.586v-1.333c0-0.716-0.581-1.297-1.297-1.297z"></path>
<path fill="#231f20" style="fill: var(--color9, #231f20)" opacity="0.1" d="M13.582 14.582h-1.077c-0.716 0-1.297 0.581-1.297 1.297v1.333h1.077v-1.333c0-0.716 0.581-1.297 1.297-1.297z"></path>
<path fill="#231f20" style="fill: var(--color9, #231f20)" opacity="0.1" d="M15.67 3.877c0-0.612 0.373-1.138 0.904-1.362-0.176-0.074-0.37-0.116-0.574-0.116-0.816 0-1.477 0.662-1.477 1.478s0.661 1.477 1.477 1.477c0.203 0 0.397-0.041 0.574-0.116-0.531-0.224-0.904-0.749-0.904-1.362z"></path>
<path fill="#231f20" style="fill: var(--color9, #231f20)" opacity="0.1" d="M16.574 9.078c-0.19-0.011-0.381-0.017-0.574-0.017-4.836 0-8.848 3.529-9.602 8.152h1.147c0.724-4.439 4.451-7.869 9.028-8.135z"></path>
<path fill="#578cad" style="fill: var(--color36, #578cad)" d="M20.804 23.378h9.898c0.716 0 1.297-0.581 1.297-1.297v-1.985c0-1.644-1.333-2.977-2.977-2.977h-26.047c-1.644 0-2.977 1.333-2.977 2.977v1.985c0 0.716 0.581 1.297 1.297 1.297h19.507z"></path>
<path fill="#231f20" style="fill: var(--color9, #231f20)" opacity="0.1" d="M1.147 22.081v-1.985c0-1.644 1.333-2.977 2.977-2.977h-1.147c-1.644 0-2.977 1.333-2.977 2.977v1.985c0 0.716 0.581 1.297 1.297 1.297h1.147c-0.716 0-1.297-0.581-1.297-1.297z"></path>
<path fill="#ff9737" style="fill: var(--color33, #ff9737)" d="M28.865 20.776h-25.73c-0.291 0-0.527-0.236-0.527-0.527s0.236-0.527 0.527-0.527h25.73c0.291 0 0.527 0.236 0.527 0.527s-0.236 0.527-0.527 0.527z"></path>
</symbol>
<symbol id="rocket" viewBox="0 0 32 32">
<path fill="#ff7124" style="fill: var(--color41, #ff7124)" d="M30.718 1.283c0.778 2.908 0.666 6.004-0.334 8.858h-0.001l-8.524-8.525c2.855-1 5.951-1.111 8.858-0.333z"></path>
<path fill="#f2d59f" style="fill: var(--color42, #f2d59f)" d="M6.932 15.977l9.287-10.808c1.647-1.647 3.581-2.831 5.641-3.552v0.001l8.525 8.524c-0.722 2.060-1.906 3.994-3.552 5.641l-10.809 9.286-9.091-9.091zM22.753 14.861c1.551-1.55 1.551-4.064 0-5.614s-4.064-1.551-5.614 0c-1.551 1.55-1.551 4.064 0 5.614s4.064 1.551 5.614 0z"></path>
<path fill="#f2d59f" style="fill: var(--color42, #f2d59f)" d="M23.817 18.372c0.134 3.504-1.137 7.052-3.812 9.727-0.821 0.821-1.724 1.51-2.684 2.066l-1.298-5.098 7.794-6.696z"></path>
<path fill="#8ecac1" style="fill: var(--color43, #8ecac1)" d="M22.753 9.247c1.551 1.55 1.551 4.064 0 5.614s-4.064 1.551-5.614 0c-1.551-1.55-1.551-4.064 0-5.614s4.064-1.551 5.614 0z"></path>
<path fill="#e6b263" style="fill: var(--color44, #e6b263)" d="M16.023 25.068l-3.069 1.13c-0.844 0.311-1.791 0.103-2.427-0.533l-0.526-0.526 3.75-2.343 2.272 2.272z"></path>
<path fill="#e6b263" style="fill: var(--color44, #e6b263)" d="M13.751 22.796l-3.751 2.343-1.569-1.569 3.047-3.047z"></path>
<path fill="#f2d59f" style="fill: var(--color42, #f2d59f)" d="M13.628 8.184l-6.696 7.793-5.097-1.297c0.556-0.96 1.246-1.863 2.066-2.684 2.675-2.675 6.222-3.946 9.726-3.812z"></path>
<path fill="#e6b263" style="fill: var(--color44, #e6b263)" d="M11.478 20.523l-3.047 3.047-1.569-1.57 2.343-3.75z"></path>
<path fill="#e6b263" style="fill: var(--color44, #e6b263)" d="M9.205 18.25l-2.343 3.75-0.527-0.526c-0.635-0.636-0.844-1.583-0.533-2.427l1.13-3.070 2.273 2.273z"></path>
<path fill="#5e2a41" style="fill: var(--color45, #5e2a41)" d="M2.219 26.084c-0.197 0-0.393-0.075-0.543-0.225-0.3-0.3-0.3-0.787 0-1.087l1.578-1.578c0.3-0.3 0.787-0.3 1.087 0s0.3 0.787 0 1.087l-1.578 1.578c-0.15 0.15-0.347 0.225-0.543 0.225z"></path>
<path fill="#5e2a41" style="fill: var(--color45, #5e2a41)" d="M0.768 31.999c-0.197 0-0.393-0.075-0.543-0.225-0.3-0.3-0.3-0.787 0-1.087l5.261-5.26c0.3-0.3 0.787-0.3 1.087 0s0.3 0.787-0 1.087l-5.261 5.26c-0.15 0.15-0.347 0.225-0.543 0.225z"></path>
<path fill="#5e2a41" style="fill: var(--color45, #5e2a41)" d="M5.632 31.601c-0.197 0-0.393-0.075-0.543-0.225-0.3-0.3-0.3-0.787 0-1.087l2.63-2.63c0.3-0.3 0.787-0.3 1.087 0s0.3 0.787 0 1.087l-2.63 2.63c-0.15 0.15-0.347 0.225-0.543 0.225z"></path>
<path fill="#5e2a41" style="fill: var(--color45, #5e2a41)" d="M16.023 25.837c-0.197 0-0.393-0.075-0.543-0.225l-9.091-9.091c-0.3-0.3-0.3-0.787 0-1.087s0.787-0.3 1.087 0l9.091 9.091c0.3 0.3 0.3 0.787 0 1.087-0.15 0.15-0.347 0.225-0.543 0.225z"></path>
<path fill="#5e2a41" style="fill: var(--color45, #5e2a41)" d="M19.946 16.792c-1.266 0-2.456-0.493-3.351-1.388s-1.388-2.084-1.388-3.35 0.493-2.456 1.388-3.351c0.895-0.895 2.084-1.388 3.35-1.388s2.456 0.493 3.351 1.388c0.895 0.895 1.388 2.084 1.388 3.35s-0.493 2.455-1.388 3.35v0c-0 0-0 0-0 0-0.895 0.895-2.084 1.388-3.35 1.388zM19.946 8.852c-0.855 0-1.659 0.333-2.263 0.938s-0.938 1.409-0.938 2.264 0.333 1.659 0.938 2.263c0.605 0.605 1.409 0.938 2.264 0.938s1.659-0.333 2.263-0.938c0-0 0-0 0-0 0.605-0.604 0.938-1.408 0.938-2.263s-0.333-1.659-0.938-2.263c-0.605-0.605-1.409-0.938-2.264-0.938z"></path>
<path fill="#5e2a41" style="fill: var(--color45, #5e2a41)" d="M6.861 22.768c-0.139 0-0.28-0.038-0.406-0.117-0.36-0.225-0.469-0.699-0.245-1.059l2.343-3.75c0.225-0.36 0.699-0.47 1.059-0.244s0.469 0.699 0.245 1.059l-2.343 3.75c-0.146 0.233-0.396 0.361-0.652 0.361z"></path>
<path fill="#5e2a41" style="fill: var(--color45, #5e2a41)" d="M8.431 24.338c-0.197 0-0.393-0.075-0.543-0.225-0.3-0.3-0.3-0.787-0-1.087l3.047-3.047c0.3-0.3 0.787-0.3 1.087 0s0.3 0.787 0 1.087l-3.047 3.047c-0.15 0.15-0.347 0.225-0.543 0.225z"></path>
<path fill="#5e2a41" style="fill: var(--color45, #5e2a41)" d="M10.002 25.907c-0.256 0-0.507-0.128-0.652-0.361-0.225-0.36-0.115-0.834 0.245-1.059l3.75-2.343c0.36-0.225 0.834-0.116 1.059 0.244s0.115 0.834-0.245 1.059l-3.75 2.343c-0.127 0.079-0.267 0.117-0.406 0.117z"></path>
<path fill="#5e2a41" style="fill: var(--color45, #5e2a41)" d="M13.628 8.953c-0.177 0-0.355-0.061-0.5-0.186-0.322-0.277-0.359-0.762-0.082-1.084l2.59-3.015c0.276-0.322 0.762-0.359 1.084-0.082s0.359 0.762 0.082 1.084l-2.59 3.015c-0.152 0.177-0.367 0.268-0.583 0.268z"></path>
<path fill="#5e2a41" style="fill: var(--color45, #5e2a41)" d="M12.161 27.108c-0.803 0-1.592-0.314-2.178-0.9l-0.506-0.506c-0.007-0.007-0.014-0.013-0.021-0.020l-3.665-3.665c-0.845-0.846-1.124-2.116-0.711-3.236l1.13-3.070c0.032-0.086 0.079-0.166 0.138-0.235l6.696-7.793c0.277-0.322 0.762-0.359 1.084-0.082s0.359 0.762 0.082 1.084l-6.606 7.688-1.082 2.94c-0.206 0.56-0.066 1.195 0.356 1.618l3.645 3.645c0.007 0.007 0.014 0.013 0.021 0.020l0.526 0.526c0.422 0.423 1.057 0.562 1.617 0.356l2.939-1.083 10.704-9.196c0.322-0.277 0.807-0.24 1.084 0.082s0.24 0.807-0.082 1.084l-10.809 9.286c-0.069 0.060-0.149 0.107-0.235 0.138l-3.069 1.13c-0.344 0.127-0.703 0.189-1.058 0.189z"></path>
<path fill="#5e2a41" style="fill: var(--color45, #5e2a41)" d="M26.832 16.551c-0.197 0-0.393-0.075-0.543-0.225-0.3-0.3-0.3-0.787 0-1.087 1.528-1.528 2.662-3.328 3.37-5.351 0.902-2.575 1.047-5.321 0.425-7.971-2.649-0.622-5.396-0.476-7.971 0.425-2.023 0.709-3.824 1.843-5.352 3.37-0.3 0.3-0.787 0.3-1.087 0s-0.3-0.787 0-1.087c1.692-1.692 3.688-2.949 5.93-3.734 3.009-1.054 6.229-1.175 9.311-0.35 0.265 0.071 0.473 0.278 0.544 0.544 0.824 3.082 0.703 6.302-0.351 9.311-0.785 2.243-2.042 4.238-3.734 5.93-0.15 0.15-0.347 0.225-0.543 0.225z"></path>
<path fill="#5e2a41" style="fill: var(--color45, #5e2a41)" d="M30.383 10.91c-0.197 0-0.393-0.075-0.543-0.225l-8.524-8.524c-0.3-0.3-0.3-0.787 0-1.087s0.787-0.3 1.087 0l8.524 8.524c0.3 0.3 0.3 0.787 0 1.087-0.15 0.15-0.347 0.225-0.543 0.225z"></path>
<path fill="#5e2a41" style="fill: var(--color45, #5e2a41)" d="M6.933 16.746c-0.064 0-0.128-0.008-0.19-0.024l-5.097-1.297c-0.233-0.059-0.425-0.225-0.519-0.447s-0.077-0.475 0.044-0.683c0.598-1.031 1.334-1.987 2.187-2.842 2.711-2.711 6.464-4.184 10.296-4.037 0.413 0.014 0.743 0.352 0.743 0.768 0 0.424-0.344 0.768-0.768 0.768h-0.001c-0.010 0-0.020-0-0.029-0.001-3.407-0.131-6.744 1.178-9.154 3.588-0.514 0.514-0.979 1.069-1.391 1.658l4.052 1.031c0.341 0.079 0.595 0.384 0.595 0.749 0 0.424-0.344 0.768-0.768 0.768z"></path>
<path fill="#5e2a41" style="fill: var(--color45, #5e2a41)" d="M17.321 30.934c-0.101 0-0.202-0.020-0.298-0.060-0.222-0.093-0.387-0.285-0.447-0.519l-1.298-5.098c-0.105-0.411 0.144-0.83 0.555-0.934s0.83 0.144 0.934 0.555l1.036 4.069c0.589-0.412 1.144-0.877 1.658-1.391 2.41-2.41 3.717-5.747 3.587-9.154-0.016-0.424 0.314-0.781 0.738-0.797 0.423-0.018 0.781 0.314 0.797 0.738 0.146 3.834-1.325 7.588-4.037 10.3-0.855 0.854-1.811 1.59-2.842 2.188-0.119 0.069-0.252 0.104-0.385 0.104z"></path>
</symbol>
<symbol id="star" viewBox="0 0 32 32">
<path fill="#fbb03b" style="fill: var(--color46, #fbb03b)" d="M18.323 2.707l2.74 5.552c0.377 0.765 1.107 1.295 1.951 1.417l6.127 0.89c2.125 0.309 2.974 2.921 1.436 4.42l-4.434 4.322c-0.611 0.595-0.889 1.453-0.745 2.293l1.047 6.102c0.363 2.117-1.859 3.731-3.76 2.732l-5.48-2.881c-0.755-0.397-1.657-0.397-2.411 0l-5.48 2.881c-1.901 0.999-4.123-0.615-3.76-2.732l1.047-6.102c0.144-0.84-0.135-1.698-0.745-2.293l-4.434-4.322c-1.538-1.499-0.689-4.111 1.436-4.42l6.127-0.89c0.844-0.123 1.574-0.653 1.951-1.417l2.74-5.552c0.951-1.926 3.697-1.926 4.647-0z"></path>
</symbol>
</defs>
</svg>
